<svg width="497" height="665" viewBox="0 0 497 665" fill="none" xmlns="http://www.w3.org/2000/svg">
<path d="M273.523 664.064C319.292 662.118 342.892 660.16 374.023 652.064C388.024 641.564 376.024 629.718 370.524 630.564C357.524 632.564 333.589 637.149 330.024 637.564C283.382 642.244 257.945 642.699 214.524 637.564C170.795 630.672 148.986 625.321 115.024 613.064C72.5236 595.564 54.5236 586.064 38.5234 571.064C19.5236 554.439 17.0236 537.064 35.0236 527.564C53.0236 518.064 75.1693 511.022 125.024 503.064C156.879 497.415 173.206 493.424 193.524 481.564C206.953 469.657 210.556 460.341 208.524 438.064C199.643 411.47 192.524 400.064 175.024 374.564C169.876 367.064 165.293 357.76 161.524 343.564C157.902 315.975 158.848 301.642 166.024 278.064C168.024 263.064 151.524 257.064 144.024 270.564C135.024 303.564 134.024 334.064 142.024 357.564C150.024 381.064 164.78 397.564 175.024 417.064C188.105 441.965 192.811 454.433 179.024 464.064C164.326 472.383 150.638 475.283 125.024 480.064C91.4692 485.654 72.5356 490.081 38.5234 500.564C-0.156315 515.409 -6.97644 544.064 6.02344 567.064C22.0073 590.879 41.5646 607.734 105.523 633.064C167.185 654.512 203.46 662.505 273.523 664.064Z" fill="white"/>
<path d="M275.023 12.0639C302.296 31.9754 313.024 61.064 303.524 94.564C295.024 107.064 279.524 97.564 286.024 84.564C291.524 67.064 285.965 47.5879 270.524 32.064C252.65 16.1279 241.524 13.564 223.524 18.064C205.524 22.564 188.19 49.564 181.524 72.064C174.857 94.5639 177.524 123.368 199.024 143.064C230.005 171.446 246.793 173.679 270.524 139.564C281.024 133.564 290.024 141.064 287.524 150.064C285.024 155.564 278.895 162.656 270.524 171.064C268.524 177.064 268.911 181.525 269.524 192.064C273.505 208.839 277.299 214.396 293.524 217.564C306.524 221.564 302.024 238.564 293.524 239.064C285.524 241.064 269.506 233.516 258.524 222.564C249.984 211.637 247.142 202.789 247.024 180.064C241.499 180.692 238.086 180.691 231.524 180.064C231.956 191.03 231.528 196.796 230.024 206.064C224.524 229.564 208.524 244.064 185.524 243.064C172.524 240.064 174.024 222.064 188.024 220.564C202.024 219.064 214.524 203.564 207.523 170.064C154.024 136.564 149.417 88.7516 182.023 29.5639C214.908 -4.45724 235.378 -7.43884 275.023 12.0639Z" fill="white"/>
<path d="M159.524 195.064C172.524 198.064 173.524 214.064 160.524 217.064H158.024C143.539 218.38 137.544 221.127 129.524 228.564C111.592 245.558 107.122 256.989 110.024 281.064C120.618 327.572 128.318 352.517 143.524 396.064C149.724 416.307 153.847 425.876 167.524 425.564C180.443 423.81 185.263 416.765 187.024 387.064L187.524 349.564C187.208 325.087 187.748 314.045 191.024 303.064C199.736 280.118 207.274 272.644 225.024 268.064C237.524 268.064 241.737 272.225 230.024 277.564C216.695 283.996 211.686 291.172 209.024 313.064L207.024 372.064C206.841 392.026 205.73 400.966 202.024 413.064C188.524 439.564 177.009 443.217 148.024 436.064C131.524 428.564 129.524 427.564 124.024 409.564C118.524 391.564 92.0236 302.564 92.0236 302.564C84.26 272.074 83.8561 256.102 97.0236 231.564C115.444 205.325 128.757 196.581 159.524 195.064Z" fill="white"/>
<path d="M228.524 467.064C222.024 463.064 242.524 455.064 249.024 458.564C253.913 461.739 257.244 463.129 265.524 464.064C272.32 464.673 278.03 464.958 283.186 464.742C283.099 463.087 283.046 461.363 283.024 459.564C283.331 448.199 285.625 440.24 291.024 425.064C301.799 399.542 305.783 387.958 312.524 364.064C321.524 346.064 321.366 291.864 321.524 281.564C325.524 271.064 339.524 271.064 343.024 281.564V299.064C342.128 337.98 339.139 358.295 328.024 391.064L312.524 432.564C307.949 444.701 305.698 453.045 305.143 459.472C307.511 458.372 309.949 457.077 312.524 455.564C328.214 446.092 334.046 437.795 340.524 419.064C345.455 378.299 349.146 357.409 357.524 324.064C363.789 300.884 366.351 288.259 367.524 267.064C367.524 242.564 354.524 230.564 324.024 226.064C311.524 223.564 310.373 223.193 308.524 215.064C309.83 204.872 314.511 201.759 335.524 204.564C362.192 211.375 374.677 218.434 387.024 244.064C392.066 261.164 391.08 275.57 385.524 306.064C374.272 348.54 371.024 376.064 364.524 424.064C358.024 444.064 352.449 449.591 328.024 464.064C319.979 467.653 313.416 470.09 306.587 471.765C306.997 472.884 307.479 473.974 308.024 475.064C312.524 484.064 327.278 488.355 358.024 490.064C402.835 489.559 426.877 489.484 453.024 492.564C478.024 497.064 489.932 503.376 494.524 521.564C498.716 549.663 494.557 561.047 483.024 582.064C471.49 603.081 430.594 619.668 373.524 623.064C320.205 624.415 292.948 621.808 249.024 611.064C212.784 601.112 194.407 594.781 164.024 582.564C155.189 578.967 152.753 575.596 154.024 566.564C152.683 555.102 154.12 550.605 164.024 549.064C185.309 550.517 197.335 550.816 219.024 550.064C240.712 549.312 302.374 542.97 346.524 527.064C359.024 525.564 362.524 541.064 354.024 547.064C305.979 565.364 271.635 570.201 202.524 573.064L237.524 584.564C290.47 599.738 319.528 602.823 370.524 601.064C410.864 597.493 431.161 594.041 454.024 579.564C472.041 565.145 477.683 553.383 472.524 525.064C465.752 514.726 450.003 513.364 417.524 512.564C366.024 511.064 334.008 513.673 315.024 506.064C295.483 498.018 287.231 489.887 284.338 474.851C283.105 474.929 281.835 475 280.524 475.064C258.352 475.532 246.926 473.862 228.524 467.064Z" fill="white"/>
</svg>
